<?xml version="1.0" standalone="no"?>
<!DOCTYPE svg PUBLIC "-//W3C//DTD SVG 20010904//EN"
 "http://www.w3.org/TR/2001/REC-SVG-20010904/DTD/svg10.dtd">
<svg version="1.0" xmlns="http://www.w3.org/2000/svg"
 width="200.000000pt" height="200.000000pt" viewBox="0 0 200.000000 200.000000"
 preserveAspectRatio="xMidYMid meet">
<metadata>
Created by potrace 1.15, written by Peter Selinger 2001-2017
</metadata>
<g transform="translate(0.000000,200.000000) scale(0.100000,-0.100000)"
fill="#000000" stroke="none">
<path d="M1240 1437 c-30 -7 -74 -23 -98 -35 l-43 -23 21 -29 c12 -17 23 -30
25 -30 2 0 27 11 57 25 67 32 172 34 234 6 78 -35 118 -116 101 -205 -7 -40
-48 -126 -61 -126 -2 0 -22 15 -46 34 l-43 34 -23 -27 -24 -26 43 -38 42 -38
-25 -20 c-14 -11 -40 -34 -58 -50 -19 -16 -51 -33 -72 -39 -22 -6 -41 -18 -43
-28 -12 -41 -17 -72 -13 -72 15 0 102 44 130 65 18 14 37 25 42 25 5 0 27 14
48 30 22 17 43 30 46 30 4 0 19 -24 34 -53 42 -84 36 -159 -19 -231 -24 -32
-45 -116 -29 -116 26 1 91 62 118 110 28 49 31 64 31 135 0 74 -3 85 -38 150
l-39 70 36 58 c86 144 44 320 -94 389 -67 34 -161 43 -240 25z"/>
<path d="M1080 1171 c0 -36 15 -48 68 -55 24 -3 57 -12 74 -20 41 -21 51 -20
77 8 l22 23 -63 27 c-58 24 -135 45 -165 46 -8 0 -13 -12 -13 -29z"/>
<path d="M683 1146 c-39 -18 -99 -54 -133 -80 l-61 -48 22 -24 c12 -13 25 -24
29 -24 3 0 29 17 57 39 29 21 72 49 98 61 32 16 47 29 51 48 3 15 8 35 11 45
2 9 3 17 1 16 -2 0 -35 -15 -75 -33z"/>
<path d="M400 919 c-65 -91 -70 -237 -10 -325 41 -58 93 -89 177 -104 91 -16
166 -9 237 25 l55 26 -22 34 c-20 31 -24 33 -43 20 -30 -20 -122 -45 -163 -45
-132 0 -221 95 -206 218 4 33 17 70 31 91 30 44 30 50 -1 79 l-24 23 -31 -42z"/>
<path d="M800 904 c0 -31 7 -43 39 -71 46 -39 58 -78 41 -138 -10 -37 -10 -46
5 -69 10 -14 22 -26 27 -26 18 0 48 85 48 136 0 89 -43 155 -122 189 l-38 15
0 -36z"/>
<path d="M1028 723 c-62 -16 46 -169 151 -216 48 -21 184 -36 193 -21 3 5 9
23 12 39 l6 30 -67 1 c-48 0 -84 7 -123 24 -51 22 -110 65 -108 79 0 3 -3 21
-7 39 -7 32 -17 36 -57 25z"/>
</g>
</svg>
